<svg width="16" height="17" viewBox="0 0 16 17" fill="none" xmlns="http://www.w3.org/2000/svg">
<g style="mix-blend-mode:plus-darker">
<path d="M8 16.5C6.89673 16.5 5.86144 16.2909 4.89412 15.8726C3.9268 15.4595 3.07712 14.8869 2.3451 14.1549C1.61307 13.4176 1.03791 12.568 0.619608 11.6059C0.206536 10.6386 0 9.60327 0 8.5C0 7.39673 0.206536 6.36144 0.619608 5.39412C1.03791 4.4268 1.61307 3.57712 2.3451 2.8451C3.07712 2.11307 3.9268 1.54052 4.89412 1.12745C5.86144 0.70915 6.89673 0.5 8 0.5C9.10327 0.5 10.1386 0.70915 11.1059 1.12745C12.0732 1.54052 12.9229 2.11307 13.6549 2.8451C14.3869 3.57712 14.9595 4.4268 15.3726 5.39412C15.7909 6.36144 16 7.39673 16 8.5C16 9.60327 15.7909 10.6386 15.3726 11.6059C14.9595 12.568 14.3869 13.4176 13.6549 14.1549C12.9229 14.8869 12.0732 15.4595 11.1059 15.8726C10.1386 16.2909 9.10327 16.5 8 16.5ZM5.36471 11.7941C5.55294 11.7941 5.71242 11.7314 5.84314 11.6059L8.00784 9.42549L10.1804 11.6059C10.3007 11.7314 10.4549 11.7941 10.6431 11.7941C10.8261 11.7941 10.9804 11.7314 11.1059 11.6059C11.2314 11.4752 11.2941 11.3209 11.2941 11.1431C11.2941 10.9497 11.2314 10.7954 11.1059 10.6804L8.92549 8.50784L11.1137 6.32745C11.2392 6.19673 11.302 6.04248 11.302 5.86471C11.302 5.68693 11.2392 5.53529 11.1137 5.4098C10.9882 5.28431 10.8366 5.22157 10.6588 5.22157C10.4863 5.22157 10.3373 5.28431 10.2118 5.4098L8.00784 7.59804L5.81961 5.41765C5.68889 5.29739 5.53726 5.23726 5.36471 5.23726C5.18693 5.23726 5.03529 5.3 4.9098 5.42549C4.78431 5.54575 4.72157 5.69739 4.72157 5.88039C4.72157 6.05294 4.78431 6.20458 4.9098 6.33529L7.0902 8.50784L4.9098 10.6882C4.78431 10.8137 4.72157 10.9654 4.72157 11.1431C4.72157 11.3209 4.78431 11.4752 4.9098 11.6059C5.03529 11.7314 5.18693 11.7941 5.36471 11.7941Z" fill="#B6B6B6"/>
</g>
</svg>
