<svg width="62" height="35" viewBox="0 0 62 35" fill="none" xmlns="http://www.w3.org/2000/svg">
<rect width="62" height="35" rx="6" fill="#EBEBEB"/>
<path d="M20.8125 15.375C20.5312 13.9219 19.3281 13.1094 17.8906 13.1094C15.9375 13.1094 14.4844 14.6094 14.4844 17.3438C14.4844 20.0938 15.9531 21.5781 17.8906 21.5781C19.3125 21.5781 20.5156 20.7812 20.8125 19.3438L22.5469 19.3594C22.1875 21.5938 20.3594 23.1562 17.875 23.1562C14.9219 23.1562 12.7812 20.9531 12.7812 17.3438C12.7812 13.7188 14.9375 11.5312 17.875 11.5312C20.2656 11.5312 22.1562 12.9375 22.5469 15.375H20.8125ZM27.5394 23.1719C25.1331 23.1719 23.5706 21.4219 23.5706 18.7969C23.5706 16.1562 25.1331 14.4062 27.5394 14.4062C29.93 14.4062 31.4925 16.1562 31.4925 18.7969C31.4925 21.4219 29.93 23.1719 27.5394 23.1719ZM27.5394 21.7812C29.0706 21.7812 29.805 20.4219 29.805 18.7969C29.805 17.1719 29.0706 15.7812 27.5394 15.7812C25.9769 15.7812 25.2425 17.1719 25.2425 18.7969C25.2425 20.4219 25.9769 21.7812 27.5394 21.7812ZM32.8131 26.1875V14.5156H34.4381V15.8906H34.5788C34.8756 15.3594 35.4538 14.4062 37.0163 14.4062C39.0631 14.4062 40.5788 16.0156 40.5788 18.7812C40.5788 21.5156 39.0944 23.1719 37.0319 23.1719C35.485 23.1719 34.8756 22.2344 34.5788 21.6719H34.485V26.1875H32.8131ZM34.4538 18.75C34.4538 20.5312 35.235 21.75 36.6569 21.75C38.1256 21.75 38.8913 20.4531 38.8913 18.75C38.8913 17.0781 38.1413 15.8281 36.6569 15.8281C35.2194 15.8281 34.4538 16.9844 34.4538 18.75ZM42.6494 26.1875C42.3056 26.1875 41.9775 26.1719 41.7588 26.1406V24.75C41.9463 24.7656 42.2744 24.7812 42.5088 24.7812C43.0244 24.7812 43.4619 24.7344 43.8525 23.6719L44.0556 23.1094L40.9463 14.5156H42.7275L44.8681 21.0938H44.9619L47.1025 14.5156H48.8994L45.3994 24.125C44.915 25.4688 44.04 26.1875 42.6494 26.1875Z" fill="#B6B6B6"/>
</svg>
