<svg width="62" height="36" viewBox="0 0 62 36" fill="none" xmlns="http://www.w3.org/2000/svg">
<rect x="0.5" y="1" width="61" height="34" rx="5.5" fill="#F8F8F8"/>
<rect x="0.5" y="1" width="61" height="34" rx="5.5" stroke="#EBEBEB"/>
<path d="M20.8125 15.875C20.5312 14.4219 19.3281 13.6094 17.8906 13.6094C15.9375 13.6094 14.4844 15.1094 14.4844 17.8438C14.4844 20.5938 15.9531 22.0781 17.8906 22.0781C19.3125 22.0781 20.5156 21.2812 20.8125 19.8438L22.5469 19.8594C22.1875 22.0938 20.3594 23.6562 17.875 23.6562C14.9219 23.6562 12.7812 21.4531 12.7812 17.8438C12.7812 14.2188 14.9375 12.0312 17.875 12.0312C20.2656 12.0312 22.1562 13.4375 22.5469 15.875H20.8125ZM27.5394 23.6719C25.1331 23.6719 23.5706 21.9219 23.5706 19.2969C23.5706 16.6562 25.1331 14.9062 27.5394 14.9062C29.93 14.9062 31.4925 16.6562 31.4925 19.2969C31.4925 21.9219 29.93 23.6719 27.5394 23.6719ZM27.5394 22.2812C29.0706 22.2812 29.805 20.9219 29.805 19.2969C29.805 17.6719 29.0706 16.2812 27.5394 16.2812C25.9769 16.2812 25.2425 17.6719 25.2425 19.2969C25.2425 20.9219 25.9769 22.2812 27.5394 22.2812ZM32.8131 26.6875V15.0156H34.4381V16.3906H34.5788C34.8756 15.8594 35.4538 14.9062 37.0163 14.9062C39.0631 14.9062 40.5788 16.5156 40.5788 19.2812C40.5788 22.0156 39.0944 23.6719 37.0319 23.6719C35.485 23.6719 34.8756 22.7344 34.5788 22.1719H34.485V26.6875H32.8131ZM34.4538 19.25C34.4538 21.0312 35.235 22.25 36.6569 22.25C38.1256 22.25 38.8913 20.9531 38.8913 19.25C38.8913 17.5781 38.1413 16.3281 36.6569 16.3281C35.2194 16.3281 34.4538 17.4844 34.4538 19.25ZM42.6494 26.6875C42.3056 26.6875 41.9775 26.6719 41.7588 26.6406V25.25C41.9463 25.2656 42.2744 25.2812 42.5088 25.2812C43.0244 25.2812 43.4619 25.2344 43.8525 24.1719L44.0556 23.6094L40.9463 15.0156H42.7275L44.8681 21.5938H44.9619L47.1025 15.0156H48.8994L45.3994 24.625C44.915 25.9688 44.04 26.6875 42.6494 26.6875Z" fill="#221D1D"/>
</svg>
