<svg width="26" height="27" viewBox="0 0 26 27" fill="none" xmlns="http://www.w3.org/2000/svg">
<g filter="url(#filter0_ddd_197_1103)">
<rect x="3" y="3" width="20" height="20" rx="5" fill="white" shape-rendering="crispEdges"/>
<path d="M13 15.5898C12.724 15.5898 12.4701 15.474 12.2383 15.2422L9.48047 12.4258C9.39714 12.3372 9.33464 12.2435 9.29297 12.1445C9.25391 12.0456 9.23438 11.9362 9.23438 11.8164C9.23438 11.6523 9.27474 11.5026 9.35547 11.3672C9.4362 11.2292 9.54297 11.1198 9.67578 11.0391C9.8112 10.9583 9.95964 10.918 10.1211 10.918C10.3685 10.918 10.5898 11.0169 10.7852 11.2148L13.1172 13.6367H12.8984L15.2148 11.2148C15.4049 11.0169 15.625 10.918 15.875 10.918C16.0365 10.918 16.1836 10.9583 16.3164 11.0391C16.4518 11.1198 16.5599 11.2292 16.6406 11.3672C16.7214 11.5026 16.7617 11.6523 16.7617 11.8164C16.7617 12.0586 16.6784 12.2617 16.5117 12.4258L13.7617 15.2422C13.6393 15.362 13.5182 15.4492 13.3984 15.5039C13.2786 15.5586 13.1458 15.5872 13 15.5898Z" fill="black" fill-opacity="0.85"/>
</g>
<defs>
<filter id="filter0_ddd_197_1103" x="0" y="0.5" width="26" height="26" filterUnits="userSpaceOnUse" color-interpolation-filters="sRGB">
<feFlood flood-opacity="0" result="BackgroundImageFix"/>
<feColorMatrix in="SourceAlpha" type="matrix" values="0 0 0 0 0 0 0 0 0 0 0 0 0 0 0 0 0 0 127 0" result="hardAlpha"/>
<feOffset dy="0.5"/>
<feGaussianBlur stdDeviation="0.5"/>
<feComposite in2="hardAlpha" operator="out"/>
<feColorMatrix type="matrix" values="0 0 0 0 0 0 0 0 0 0 0 0 0 0 0 0 0 0 0.24 0"/>
<feBlend mode="normal" in2="BackgroundImageFix" result="effect1_dropShadow_197_1103"/>
<feColorMatrix in="SourceAlpha" type="matrix" values="0 0 0 0 0 0 0 0 0 0 0 0 0 0 0 0 0 0 127 0" result="hardAlpha"/>
<feOffset dy="1"/>
<feGaussianBlur stdDeviation="1"/>
<feComposite in2="hardAlpha" operator="out"/>
<feColorMatrix type="matrix" values="0 0 0 0 0 0 0 0 0 0 0 0 0 0 0 0 0 0 0.12 0"/>
<feBlend mode="normal" in2="effect1_dropShadow_197_1103" result="effect2_dropShadow_197_1103"/>
<feColorMatrix in="SourceAlpha" type="matrix" values="0 0 0 0 0 0 0 0 0 0 0 0 0 0 0 0 0 0 127 0" result="hardAlpha"/>
<feOffset dy="0.5"/>
<feGaussianBlur stdDeviation="1.5"/>
<feComposite in2="hardAlpha" operator="out"/>
<feColorMatrix type="matrix" values="0 0 0 0 0 0 0 0 0 0 0 0 0 0 0 0 0 0 0.12 0"/>
<feBlend mode="normal" in2="effect2_dropShadow_197_1103" result="effect3_dropShadow_197_1103"/>
<feBlend mode="normal" in="SourceGraphic" in2="effect3_dropShadow_197_1103" result="shape"/>
</filter>
</defs>
</svg>
