<svg width="43" height="55" viewBox="0 0 43 55" fill="none" xmlns="http://www.w3.org/2000/svg">
<g clip-path="url(#clip0_230_6575)">
<path d="M8.68917 25.1215L6.88539 17.9954C5.59411 12.8929 8.68254 7.70777 13.7878 6.41449C18.8863 5.12188 24.0715 8.21031 25.3627 13.3129L28.3313 25.021" stroke="#FFB72D" stroke-width="11.1935" stroke-linecap="round"/>
<path d="M27.2679 17.4565C32.0159 16.5475 36.6819 19.2655 38.1673 23.8579C38.9245 26.1947 39.6729 28.6664 40.2015 30.7563C40.7301 32.8459 41.2466 35.377 41.6985 37.7935C42.5767 42.539 39.7718 47.1501 35.1634 48.6118C31.898 49.6473 28.2284 50.7556 25.221 51.5181C22.2137 52.2805 18.4576 53.054 15.0989 53.6978C10.3443 54.6067 5.68578 51.8879 4.20045 47.2954L3.63599 45.5249C3.07924 43.7455 2.5558 41.9641 2.15943 40.397C1.6308 38.3069 1.11329 35.7771 0.668222 33.3618L0.595956 32.9165C-0.0392647 28.3308 2.7391 23.9577 7.20435 22.5415C10.463 21.5061 14.1327 20.397 17.1399 19.6353C20.1541 18.8729 23.9032 18.0996 27.2679 17.4565Z" fill="#FFC960" stroke="#FFCD6C"/>
<path d="M39.8414 45.3616C38.6864 46.8469 37.0821 48.0054 35.1568 48.6155C32.4005 49.491 29.3434 50.4178 26.6471 51.1448L1.16171 35.9651C1.08314 35.5682 1.00541 35.1696 0.92831 34.7717L0.661708 33.3645C-0.00648367 29.7691 1.44007 26.2517 4.18808 24.1213L39.8414 45.3616Z" fill="white" fill-opacity="0.25" stroke="#FFCD6C"/>
</g>
<defs>
<clipPath id="clip0_230_6575">
<rect width="43" height="55" fill="white"/>
</clipPath>
</defs>
</svg>
