<svg width="14" height="13" viewBox="0 0 14 13" fill="none" xmlns="http://www.w3.org/2000/svg">
<path d="M12.81 5.5C13.4672 5.5 14.0103 6.03655 13.8991 6.68429C13.7617 7.48448 13.4857 8.25773 13.0804 8.96821C12.4778 10.0248 11.6102 10.906 10.5633 11.5252C9.51634 12.1444 8.32613 12.48 7.10995 12.4991C5.89377 12.5182 4.6936 12.2201 3.62772 11.6341C2.56185 11.0482 1.66705 10.1946 1.03152 9.15749C0.395989 8.1204 0.0416601 6.93561 0.00345411 5.71988C-0.0347519 4.50415 0.244483 3.29944 0.81364 2.22449C1.19638 1.50163 1.70133 0.854223 2.30335 0.309482C2.79068 -0.131481 3.53469 0.0395472 3.88685 0.594455C4.239 1.14936 4.05935 1.87661 3.61246 2.35851C3.34013 2.65217 3.10599 2.98123 2.917 3.33816C2.54136 4.04763 2.35706 4.84274 2.38228 5.64512C2.4075 6.4475 2.64135 7.22946 3.0608 7.91394C3.48025 8.59842 4.07082 9.1618 4.7743 9.54854C5.47778 9.93528 6.26989 10.132 7.07257 10.1194C7.87525 10.1068 8.66079 9.88528 9.35177 9.47663C10.0428 9.06798 10.6153 8.48634 11.0131 7.78902C11.2132 7.4382 11.3656 7.06419 11.4676 6.6769C11.635 6.04136 12.1528 5.5 12.81 5.5Z" fill="white"/>
</svg>
