<svg width="18" height="17" viewBox="0 0 18 17" fill="none" xmlns="http://www.w3.org/2000/svg">
<path d="M9.01562 16.9297C7.90104 16.9297 6.85677 16.7188 5.88281 16.2969C4.90885 15.8802 4.05208 15.3021 3.3125 14.5625C2.57292 13.8281 1.99219 12.974 1.57031 12C1.15365 11.0208 0.945312 9.97396 0.945312 8.85938C0.945312 7.74479 1.15365 6.70052 1.57031 5.72656C1.99219 4.7474 2.57292 3.88802 3.3125 3.14844C4.05208 2.40885 4.90885 1.83073 5.88281 1.41406C6.85677 0.997396 7.90104 0.789062 9.01562 0.789062C10.1302 0.789062 11.1745 0.997396 12.1484 1.41406C13.1276 1.83073 13.987 2.40885 14.7266 3.14844C15.4661 3.88802 16.0443 4.7474 16.4609 5.72656C16.8828 6.70052 17.0938 7.74479 17.0938 8.85938C17.0938 9.97396 16.8828 11.0208 16.4609 12C16.0443 12.974 15.4661 13.8281 14.7266 14.5625C13.987 15.3021 13.1276 15.8802 12.1484 16.2969C11.1745 16.7188 10.1302 16.9297 9.01562 16.9297ZM9.01562 15.3359C9.91146 15.3359 10.75 15.1667 11.5312 14.8281C12.3125 14.4948 13 14.0312 13.5938 13.4375C14.1927 12.8438 14.6589 12.1562 14.9922 11.375C15.3255 10.5938 15.4922 9.75521 15.4922 8.85938C15.4922 7.96354 15.3255 7.125 14.9922 6.34375C14.6589 5.55729 14.1927 4.86979 13.5938 4.28125C13 3.6875 12.3125 3.22396 11.5312 2.89062C10.75 2.55208 9.91146 2.38281 9.01562 2.38281C8.125 2.38281 7.28646 2.55208 6.5 2.89062C5.71875 3.22396 5.03125 3.6875 4.4375 4.28125C3.84375 4.86979 3.3776 5.55729 3.03906 6.34375C2.70573 7.125 2.53906 7.96354 2.53906 8.85938C2.53906 9.75521 2.70573 10.5938 3.03906 11.375C3.3776 12.1562 3.84375 12.8438 4.4375 13.4375C5.03125 14.0312 5.71875 14.4948 6.5 14.8281C7.28646 15.1667 8.125 15.3359 9.01562 15.3359ZM7.64844 13.1484C7.47135 13.1484 7.32292 13.0938 7.20312 12.9844C7.08854 12.8698 7.03125 12.7266 7.03125 12.5547C7.03125 12.3828 7.08854 12.2422 7.20312 12.1328C7.32292 12.0182 7.47135 11.9609 7.64844 11.9609H8.57812V8.69531H7.78906C7.61198 8.69531 7.46354 8.64062 7.34375 8.53125C7.22396 8.41667 7.16406 8.27344 7.16406 8.10156C7.16406 7.9349 7.22396 7.79427 7.34375 7.67969C7.46354 7.5651 7.61198 7.50781 7.78906 7.50781H9.25781C9.47656 7.50781 9.64062 7.57812 9.75 7.71875C9.86458 7.85417 9.92188 8.03906 9.92188 8.27344V11.9609H10.7891C10.9661 11.9609 11.112 12.0182 11.2266 12.1328C11.3464 12.2422 11.4062 12.3828 11.4062 12.5547C11.4062 12.7266 11.3464 12.8698 11.2266 12.9844C11.112 13.0938 10.9661 13.1484 10.7891 13.1484H7.64844ZM8.96875 6.29688C8.67708 6.29688 8.42708 6.19531 8.21875 5.99219C8.01562 5.78385 7.91406 5.53385 7.91406 5.24219C7.91406 4.94531 8.01562 4.69531 8.21875 4.49219C8.42708 4.28385 8.67708 4.17969 8.96875 4.17969C9.26042 4.17969 9.50781 4.28385 9.71094 4.49219C9.91927 4.69531 10.0234 4.94531 10.0234 5.24219C10.0234 5.53385 9.91927 5.78385 9.71094 5.99219C9.50781 6.19531 9.26042 6.29688 8.96875 6.29688Z" fill="white" fill-opacity="0.66"/>
</svg>
