<svg width="75" height="28" viewBox="0 0 75 28" fill="none" xmlns="http://www.w3.org/2000/svg">
<g filter="url(#filter0_dd_159_891)">
<rect x="3" y="2.5" width="69" height="22" rx="5" fill="white"/>
<path d="M11.2524 18.5V9.30859H14.5278C16.6606 9.30859 17.7144 10.502 17.7144 12.1904C17.7144 13.4282 17.1558 14.3677 16.0386 14.7803L18.0698 18.5H16.4829L14.6167 15.0342H14.5278H12.6489V18.5H11.2524ZM12.6489 13.8281H14.3882C15.7466 13.8281 16.3052 13.2314 16.3052 12.1904C16.3052 11.1494 15.7466 10.502 14.3882 10.502H12.6489V13.8281ZM22.0308 18.6396C19.9995 18.6396 18.7554 17.2432 18.7554 15.0977C18.7554 12.9775 20.0249 11.5176 21.9419 11.5176C23.5161 11.5176 25.0015 12.4951 25.0015 14.9834V15.4658H20.1011C20.1392 16.7734 20.9072 17.5225 22.0435 17.5225C22.8179 17.5225 23.313 17.1924 23.5415 16.7734H24.9126C24.6079 17.8906 23.5415 18.6396 22.0308 18.6396ZM20.1138 14.4502H23.6685C23.6685 13.3965 22.9956 12.6348 21.9546 12.6348C20.8691 12.6348 20.1646 13.4727 20.1138 14.4502ZM29.2671 18.6396C27.2612 18.6396 26.0425 17.1543 26.0425 15.085C26.0425 12.9775 27.2993 11.5176 29.2417 11.5176C30.8159 11.5176 31.9585 12.4443 32.0981 13.8408H30.7778C30.6382 13.1934 30.1177 12.6475 29.2671 12.6475C28.1499 12.6475 27.4009 13.5742 27.4009 15.0469C27.4009 16.5576 28.1372 17.4844 29.2671 17.4844C30.0288 17.4844 30.6128 17.0654 30.7778 16.3164H32.0981C31.9458 17.6494 30.8921 18.6396 29.2671 18.6396ZM36.3511 18.6396C34.3198 18.6396 33.0757 17.2432 33.0757 15.0977C33.0757 12.9775 34.3452 11.5176 36.2622 11.5176C37.8364 11.5176 39.3218 12.4951 39.3218 14.9834V15.4658H34.4214C34.4595 16.7734 35.2275 17.5225 36.3638 17.5225C37.1382 17.5225 37.6333 17.1924 37.8618 16.7734H39.2329C38.9282 17.8906 37.8618 18.6396 36.3511 18.6396ZM34.4341 14.4502H37.9888C37.9888 13.3965 37.3159 12.6348 36.2749 12.6348C35.1895 12.6348 34.4849 13.4727 34.4341 14.4502ZM40.6675 18.5V11.6064H42.0259V18.5H40.6675ZM41.353 10.54C40.8833 10.54 40.4897 10.1846 40.4897 9.74023C40.4897 9.2959 40.8833 8.94043 41.353 8.94043C41.8101 8.94043 42.2036 9.2959 42.2036 9.74023C42.2036 10.1846 41.8101 10.54 41.353 10.54ZM49.5923 11.6064L47.0913 18.5H45.6313L43.1304 11.6064H44.5903L46.3296 16.9004H46.3931L48.1323 11.6064H49.5923ZM53.4263 18.6396C51.395 18.6396 50.1509 17.2432 50.1509 15.0977C50.1509 12.9775 51.4204 11.5176 53.3374 11.5176C54.9116 11.5176 56.397 12.4951 56.397 14.9834V15.4658H51.4966C51.5347 16.7734 52.3027 17.5225 53.439 17.5225C54.2134 17.5225 54.7085 17.1924 54.937 16.7734H56.3081C56.0034 17.8906 54.937 18.6396 53.4263 18.6396ZM51.5093 14.4502H55.064C55.064 13.3965 54.3911 12.6348 53.3501 12.6348C52.2646 12.6348 51.5601 13.4727 51.5093 14.4502ZM60.3198 18.6396C58.6567 18.6396 57.438 17.2939 57.438 15.0723C57.438 12.8252 58.6694 11.5176 60.3325 11.5176C61.6147 11.5176 62.0845 12.292 62.3257 12.7236H62.3892V9.30859H63.7476V18.5H62.4272V17.4209H62.3257C62.0718 17.8779 61.5767 18.6396 60.3198 18.6396ZM60.6245 17.4844C61.7798 17.4844 62.4272 16.4941 62.4272 15.0469C62.4272 13.6123 61.7925 12.6729 60.6245 12.6729C59.4185 12.6729 58.8218 13.6885 58.8218 15.0469C58.8218 16.4307 59.4438 17.4844 60.6245 17.4844Z" fill="black" fill-opacity="0.85"/>
</g>
<defs>
<filter id="filter0_dd_159_891" x="0.5" y="0.5" width="74" height="27" filterUnits="userSpaceOnUse" color-interpolation-filters="sRGB">
<feFlood flood-opacity="0" result="BackgroundImageFix"/>
<feColorMatrix in="SourceAlpha" type="matrix" values="0 0 0 0 0 0 0 0 0 0 0 0 0 0 0 0 0 0 127 0" result="hardAlpha"/>
<feMorphology radius="0.5" operator="dilate" in="SourceAlpha" result="effect1_dropShadow_159_891"/>
<feOffset/>
<feComposite in2="hardAlpha" operator="out"/>
<feColorMatrix type="matrix" values="0 0 0 0 0 0 0 0 0 0 0 0 0 0 0 0 0 0 0.05 0"/>
<feBlend mode="normal" in2="BackgroundImageFix" result="effect1_dropShadow_159_891"/>
<feColorMatrix in="SourceAlpha" type="matrix" values="0 0 0 0 0 0 0 0 0 0 0 0 0 0 0 0 0 0 127 0" result="hardAlpha"/>
<feOffset dy="0.5"/>
<feGaussianBlur stdDeviation="1.25"/>
<feComposite in2="hardAlpha" operator="out"/>
<feColorMatrix type="matrix" values="0 0 0 0 0 0 0 0 0 0 0 0 0 0 0 0 0 0 0.3 0"/>
<feBlend mode="normal" in2="effect1_dropShadow_159_891" result="effect2_dropShadow_159_891"/>
<feBlend mode="normal" in="SourceGraphic" in2="effect2_dropShadow_159_891" result="shape"/>
</filter>
</defs>
</svg>
