<svg width="24" height="23" viewBox="0 0 24 23" fill="none" xmlns="http://www.w3.org/2000/svg">
<path d="M22.8 10.5C23.4627 10.5 24.0062 11.0386 23.9401 11.698C23.7728 13.3648 23.2579 14.9827 22.4236 16.4455C21.3905 18.2567 19.9033 19.7675 18.1085 20.8289C16.3137 21.8903 14.2734 22.4658 12.1885 22.4985C10.1036 22.5313 8.04618 22.0202 6.21896 21.0157C4.39174 20.0112 2.8578 18.5479 1.76832 16.77C0.678838 14.9921 0.0714174 12.961 0.00592134 10.8769C-0.0595747 8.79282 0.419114 6.72762 1.39481 4.88484C2.1828 3.3966 3.27299 2.09491 4.59067 1.06061C5.112 0.65141 5.85795 0.821688 6.21307 1.38126C6.56818 1.94083 6.39655 2.67692 5.88562 3.09903C4.91507 3.90085 4.10859 4.88839 3.51585 6.00788C2.73529 7.48209 2.35234 9.13426 2.40474 10.8015C2.45713 12.4688 2.94307 14.0937 3.81465 15.516C4.68624 16.9383 5.91339 18.1089 7.37517 18.9125C8.83694 19.7162 10.4829 20.125 12.1508 20.0988C13.8187 20.0726 15.451 19.6123 16.8868 18.7631C18.3226 17.914 19.5124 16.7054 20.3389 15.2564C20.9665 14.1561 21.3681 12.946 21.5251 11.6969C21.6077 11.0393 22.1373 10.5 22.8 10.5Z" fill="#221D1D"/>
</svg>
