<svg width="11" height="11" viewBox="0 0 11 11" fill="none" xmlns="http://www.w3.org/2000/svg">
<g clip-path="url(#clip0_289_40907)">
<path opacity="0.33" d="M11 5.5C11 8.53757 8.53757 11 5.5 11C2.46243 11 0 8.53757 0 5.5C0 2.46243 2.46243 0 5.5 0C8.53757 0 11 2.46243 11 5.5ZM2.75 5.5C2.75 7.01878 3.98122 8.25 5.5 8.25C7.01878 8.25 8.25 7.01878 8.25 5.5C8.25 3.98122 7.01878 2.75 5.5 2.75C3.98122 2.75 2.75 3.98122 2.75 5.5Z" fill="white"/>
<path d="M9.625 5.50011C10.3844 5.50011 11.0169 6.12507 10.829 6.86085C10.6757 7.46139 10.4211 8.03491 10.0731 8.55575C9.46874 9.46022 8.60975 10.1652 7.60476 10.5814C6.59977 10.9977 5.4939 11.1066 4.427 10.8944C3.36011 10.6822 2.3801 10.1584 1.61091 9.3892C0.841727 8.62001 0.317903 7.64 0.105684 6.57311C-0.106535 5.50621 0.00238317 4.40034 0.418666 3.39535C0.834948 2.39036 1.53989 1.53137 2.44436 0.927023C2.9652 0.579013 3.53872 0.32444 4.13926 0.171092C4.87504 -0.0167909 5.5 0.615714 5.5 1.37511C5.5 2.1345 4.84799 2.72268 4.18157 3.08676C4.11012 3.12579 4.04025 3.16808 3.97218 3.21357C3.51995 3.51574 3.16747 3.94523 2.95933 4.44773C2.75119 4.95023 2.69673 5.50316 2.80284 6.03661C2.90895 6.57006 3.17086 7.06006 3.55546 7.44465C3.94005 7.82925 4.43005 8.09116 4.9635 8.19727C5.49695 8.30338 6.04988 8.24892 6.55238 8.04078C7.05488 7.83264 7.48437 7.48016 7.78654 7.02793C7.83202 6.95986 7.87432 6.88999 7.91335 6.81854C8.27743 6.15212 8.86561 5.50011 9.625 5.50011Z" fill="white"/>
</g>
<defs>
<clipPath id="clip0_289_40907">
<rect width="11" height="11" fill="white"/>
</clipPath>
</defs>
</svg>
