<svg width="75" height="28" viewBox="0 0 75 28" fill="none" xmlns="http://www.w3.org/2000/svg">
<g filter="url(#filter0_dd_159_868)">
<rect x="3" y="2.5" width="69" height="22" rx="5" fill="white"/>
<path d="M29.8257 11.7334C29.7368 10.8828 28.9878 10.3877 27.9341 10.3877C26.8042 10.3877 26.0933 10.959 26.0933 11.7461C26.0933 12.6221 27.0454 12.9521 27.769 13.1299L28.6577 13.3711C29.8384 13.6504 31.2983 14.2979 31.311 15.9609C31.2983 17.5098 30.0669 18.6523 27.896 18.6523C25.8394 18.6523 24.5444 17.624 24.4556 15.9482H25.8521C25.9409 16.9512 26.8169 17.4336 27.896 17.4336C29.064 17.4336 29.9146 16.8369 29.9272 15.9355C29.9146 15.1357 29.1655 14.8057 28.188 14.5518L27.0962 14.2598C25.6235 13.8535 24.6968 13.1045 24.6968 11.8223C24.6968 10.2354 26.1187 9.18164 27.9722 9.18164C29.8384 9.18164 31.146 10.248 31.1841 11.7334H29.8257ZM35.6655 18.6396C33.6343 18.6396 32.3901 17.2432 32.3901 15.0977C32.3901 12.9775 33.6597 11.5176 35.5767 11.5176C37.1509 11.5176 38.6362 12.4951 38.6362 14.9834V15.4658H33.7358C33.7739 16.7734 34.542 17.5225 35.6782 17.5225C36.4526 17.5225 36.9478 17.1924 37.1763 16.7734H38.5474C38.2427 17.8906 37.1763 18.6396 35.6655 18.6396ZM33.7485 14.4502H37.3032C37.3032 13.3965 36.6304 12.6348 35.5894 12.6348C34.5039 12.6348 33.7993 13.4727 33.7485 14.4502ZM41.3403 14.4121V18.5H39.9819V11.6064H41.2896V12.7363H41.3657C41.6958 12 42.3687 11.5176 43.397 11.5176C44.8188 11.5176 45.7456 12.4062 45.7456 14.1201V18.5H44.3999V14.2852C44.3999 13.2822 43.854 12.6855 42.9399 12.6855C42.0132 12.6855 41.3403 13.3076 41.3403 14.4121ZM50.6206 11.6064V12.6855H49.2114V16.4688C49.2114 17.2432 49.605 17.3828 50.0366 17.3955C50.2271 17.3955 50.5317 17.3701 50.7222 17.3574V18.5381C50.5317 18.5635 50.2397 18.5889 49.8716 18.5889C48.8052 18.5889 47.853 18.0049 47.8657 16.748V12.6855H46.8501V11.6064H47.8657V9.95605H49.2114V11.6064H50.6206Z" fill="#007AFF"/>
</g>
<defs>
<filter id="filter0_dd_159_868" x="0.5" y="0.5" width="74" height="27" filterUnits="userSpaceOnUse" color-interpolation-filters="sRGB">
<feFlood flood-opacity="0" result="BackgroundImageFix"/>
<feColorMatrix in="SourceAlpha" type="matrix" values="0 0 0 0 0 0 0 0 0 0 0 0 0 0 0 0 0 0 127 0" result="hardAlpha"/>
<feMorphology radius="0.5" operator="dilate" in="SourceAlpha" result="effect1_dropShadow_159_868"/>
<feOffset/>
<feComposite in2="hardAlpha" operator="out"/>
<feColorMatrix type="matrix" values="0 0 0 0 0 0 0 0 0 0 0 0 0 0 0 0 0 0 0.05 0"/>
<feBlend mode="normal" in2="BackgroundImageFix" result="effect1_dropShadow_159_868"/>
<feColorMatrix in="SourceAlpha" type="matrix" values="0 0 0 0 0 0 0 0 0 0 0 0 0 0 0 0 0 0 127 0" result="hardAlpha"/>
<feOffset dy="0.5"/>
<feGaussianBlur stdDeviation="1.25"/>
<feComposite in2="hardAlpha" operator="out"/>
<feColorMatrix type="matrix" values="0 0 0 0 0 0 0 0 0 0 0 0 0 0 0 0 0 0 0.3 0"/>
<feBlend mode="normal" in2="effect1_dropShadow_159_868" result="effect2_dropShadow_159_868"/>
<feBlend mode="normal" in="SourceGraphic" in2="effect2_dropShadow_159_868" result="shape"/>
</filter>
</defs>
</svg>
